<svg xmlns="http://www.w3.org/2000/svg" viewBox="0 0 512 512">
  <rect width="512" height="512" rx="114" fill="#3d5c42"/>
  <path d="M256,100 C160,100 130,220 130,320 C130,400 180,440 256,440 C332,440 382,400 382,320 C382,220 352,100 256,100 Z" fill="#6b8f71"/>
  <path d="M256,130 C180,130 155,230 155,315 C155,380 195,410 256,410 C317,410 357,380 357,315 C357,230 332,130 256,130 Z" fill="#a8c5ae"/>
  <circle cx="256" cy="325" r="55" fill="#c17a56"/>
  <circle cx="235" cy="305" r="12" fill="#fff" opacity="0.4"/>
</svg>
